<svg width="924" height="499" xmlns="http://www.w3.org/2000/svg" viewBox="0 0 923.5 498.98"><defs><style>.cls-1{fill:#ffffff;}.cls-2{fill:#bce4fa;}</style></defs><g id="Capa_2" data-name="Capa 2"><g id="Capa_1-2" data-name="Capa 1"><path class="cls-1" d="M694.55,180.37c0,7,.06,14,0,21,0,2.93-.76,3.26-3.27,1.76-4.71-2.82-9.3-5.85-14.11-8.5a112.84,112.84,0,0,0-37.06-12.88c-12.26-1.9-24.49-1.92-36.36,2.68-12.05,4.66-16.56,16.63-13,27.71,1.57,4.82,4.88,8.25,9.23,10.73,5.68,3.23,11.86,5.2,18.06,7.17,12.36,3.92,24.84,7.56,37,12.13,12.55,4.72,24,11.47,33.05,21.77a43.79,43.79,0,0,1,8.26,13,73.36,73.36,0,0,1,4,40.65c-4.31,23.88-19.2,38.85-40.47,48.35a96.59,96.59,0,0,1-29.84,7.57,155.88,155.88,0,0,1-37.26-1,137.55,137.55,0,0,1-44-14c-3.22-1.63-4.63-3.55-4.57-7.29.23-12.66.07-25.32.13-38,0-4.52.46-4.72,4.39-2.3a141.52,141.52,0,0,0,41.63,17.66,104.76,104.76,0,0,0,32.72,2.35,71.36,71.36,0,0,0,15.5-3.5,23,23,0,0,0,13.21-10.88c5.2-9.16,4.42-24.82-9.21-31.69-7.34-3.7-15.09-6.13-22.91-8.44-15.63-4.64-31.42-8.85-45.83-16.83-11.17-6.19-20.46-14.3-25.81-26.18a60.77,60.77,0,0,1-5.69-24.6c-.1-9.05.59-17.87,3.54-26.55,4.77-14,13.74-24.45,26.1-32.32,10.75-6.86,22.64-10.57,35-12.42a130.14,130.14,0,0,1,32.83-.62,134,134,0,0,1,32.86,7.94,98.59,98.59,0,0,1,19.06,9.78,5.51,5.51,0,0,1,2.84,5.32c-.11,6.83,0,13.66,0,20.49Z"/><path class="cls-1" d="M26.17,139.18c7.33,0,14.66.08,22-.05,2.74,0,4.06,1,5.11,3.57,8.92,22.24,18,44.41,27.07,66.59s18.33,44.63,27.5,67c.89,2.15,1.8,4.3,2.72,6.43.31.72.72,1.17,1.19.1.34-.76.65-1.53,1-2.3q9.63-23.84,19.28-47.65,13.77-33.75,27.62-67.44c2.78-6.78,5.49-13.58,8.25-20.36.44-1.08,1-2.09,1.44-3.18.74-2.05,2.23-2.73,4.28-2.66s4,0,6,0l37.49,0c.83,0,1.66,0,2.49,0,3.14.17,3.56.77,2.36,3.61-2.34,5.51-4.76,11-7.12,16.5q-15.06,35.09-30.08,70.19c-7.26,17-14.39,34-21.65,51-7.33,17.14-14.78,34.22-22.13,51.35-4.59,10.7-9.1,21.44-13.66,32.16-.58,1.38-1.31,2.7-1.89,4.08a3.38,3.38,0,0,1-3.45,2.31q-10.74-.06-21.49,0a3.64,3.64,0,0,1-3.79-2.55c-2.26-5.37-4.67-10.67-7-16-6.33-14.84-12.6-29.71-18.95-44.54s-12.65-29.32-18.94-44c-5.57-13-11.07-26-16.61-39q-10.86-25.47-21.73-50.95Q7.14,158.39.82,143.45A6.06,6.06,0,0,1,0,141.13a2.22,2.22,0,0,1,1.21-1.72,17.45,17.45,0,0,1,4-.25h21Z"/><path class="cls-1" d="M812.3,275.35q0-44.24,0-88.46c0-6.45.36-5.63-5.62-5.64q-26.49,0-53,0c-1.17,0-2.34,0-3.5,0-2.4-.18-2.71-.51-2.87-3.08-.08-1.33,0-2.67,0-4,0-10.33,0-20.66,0-31,0-3.81.15-3.93,4-3.95,10.83-.05,21.66,0,32.49,0H916.77c6.71,0,6.72,0,6.73,6.51q0,14.75,0,29.49c0,1.16,0,2.33-.08,3.49a2.45,2.45,0,0,1-2.57,2.5c-1.33.06-2.66.05-4,.05l-52,0c-1.34,0-2.67.06-4,0-1.73-.05-2.37.86-2.36,2.46,0,1.83,0,3.67,0,5.5q0,87,0,173.94c0,8.1.53,7.19-7.3,7.21-11,0-22,0-33,0-1.17,0-2.33,0-3.5-.05-1.66,0-2.39-.93-2.4-2.52s0-3,0-4.5q0-44,0-88Z"/><path class="cls-2" d="M372.44,0C402-.53,431,5.88,458.81,18a201.21,201.21,0,0,1,45.63,27.52q4.08,3.29,8.25,6.47c1.5,1.14,1.67,2.21.44,3.73-3.26,4-6.38,8.1-9.59,12.13-3.53,4.43-7.1,8.81-10.65,13.22-2.05,2.56-2.13,2.67-4.62.63a201.21,201.21,0,0,0-28-19.17,181,181,0,0,0-135.11-17.1A181,181,0,0,0,280.6,63.86a201,201,0,0,0-25.8,17.93c-2.26,1.86-2.68,1.78-4.41-.41Q240.67,69,231.06,56.56c-2.11-2.74-2-2.85.63-5.16a212.86,212.86,0,0,1,34.79-24.15A209.53,209.53,0,0,1,331.35,3.57C345,1,352.82-.18,372.44,0Z"/><path class="cls-2" d="M373.67,67.13c26.19.63,51.56,6.45,74.84,19.93,7,4.07,13.68,8.84,20.47,13.34,1.24.83,2.28,1.95,3.44,2.9s1.38,2.08.34,3.4q-10.33,13.15-20.61,26.35a2,2,0,0,1-3,.53c-1-.66-1.89-1.35-2.84-2-14.12-10-29.37-17.7-46.31-21.57-6.12-1.39-12.45-1.93-18.71-2.72a71.85,71.85,0,0,0-9.93-.7,128.48,128.48,0,0,0-53.09,12.11,133.05,133.05,0,0,0-23.54,14.08c-2.66,2-2.77,2-4.71-.47-6.27-8-12.47-16-18.7-24-.4-.53-.73-1.11-1.11-1.66a2.19,2.19,0,0,1,.55-3.43c4-3,7.91-6.1,12-8.94a144.74,144.74,0,0,1,26.73-14.49,160.19,160.19,0,0,1,31.45-9.52A179.79,179.79,0,0,1,373.67,67.13Z"/><path class="cls-2" d="M291.18,467c3.16,0,6.32-.06,9.48,0,2.61.07,3.06.43,3.14,2.77a44,44,0,0,1-1.34,13.83,18,18,0,0,1-9,11.4c-10,5.29-20,5.34-29.87-.51A22.48,22.48,0,0,1,253,479.41c-2.06-9.55-1.49-18.89,5.27-26.8a23.18,23.18,0,0,1,5.08-4.67c11.3-7.05,23.12-6.38,33.33,1.83a14.64,14.64,0,0,1,1.8,1.72c3.9,4.37,3.62,5.66-1.71,8.15a19.7,19.7,0,0,0-1.79.87c-1.73,1-3.09.63-4.35-.89a14.35,14.35,0,0,0-3.45-3.5c-7.41-4.23-20.39-2.94-23.47,9.32a23.24,23.24,0,0,0,.77,13.69c2,5.69,6.29,9,12.48,8.95a28.76,28.76,0,0,0,9.26-1.27,10.6,10.6,0,0,0,5-4.44c2.29-3.89,1.37-5.17-3.15-5.26-2.49-.05-5,0-7.48-.09a2.67,2.67,0,0,1-2.89-2.76c-.05-.67-.05-1.33-.06-2,0-4.74.36-5.19,5-5.26,2.83,0,5.66,0,8.49,0Z"/><path class="cls-2" d="M792.5,466h60.42c5.72,0,5.72,0,5.61,5.82,0,.66,0,1.33,0,2a2,2,0,0,1-2.09,2.27c-.83,0-1.66.06-2.49.06q-60.92,0-121.83,0c-5.3,0-5.54-.32-5.5-5.75,0-4.34.06-4.4,4.51-4.4Q761.79,466,792.5,466Z"/><path class="cls-2" d="M132.77,466H192.2c5.72,0,5.72,0,5.6,5.81,0,.5,0,1,0,1.5.07,1.81-.67,2.84-2.6,2.81-1,0-2,0-3,0l-119.86,0h-1.5c-4-.11-4-.13-4.09-4.35-.1-5.83-.1-5.83,5.6-5.82h60.43Z"/><path class="cls-2" d="M513.43,470.74c.48-11.91,5.3-20.88,16.67-25.55,10.61-4.37,23.15-1.47,30,6.82a2,2,0,0,1,.33.38c1.16,2.51,2.31,5,3.47,7.54-1.85,2.13-4.66,1.31-6.94,2.2-1.88.74-3.4-.08-4.55-1.95-4.13-6.66-9.51-6.95-17.65-5.47a9.79,9.79,0,0,0-6.68,4.9c-4,7.11-4.61,15.59.33,23.17a11.39,11.39,0,0,0,9.13,5.27c1,.08,2,.05,3,.09,5.5.25,9.74-1.86,12.31-6.82.9-1.74,1.89-2.63,3.91-1.76a12.1,12.1,0,0,0,2.44.46c5.76,1.1,6.08,1.8,2.93,6.94-4.28,7-10.33,10.94-18.7,11.54-4.55.33-8.89.34-13.16-1.42C518.46,492.22,513.93,482.75,513.43,470.74Z"/><path class="cls-2" d="M409.41,471.15c0-7.48,0-15,0-22.44,0-4.58.08-4.58,4.82-4.67.5,0,1,0,1.5,0,4.41.05,5.4.64,4.76,4.83-1.36,8.83.83,17.56.13,26.34-.27,3.3-.54,6.61-.57,9.92,0,2.72.14,2.77,2.73,2.79,5.82,0,11.64,0,17.46,0,4.58,0,4.58.06,4.61,4.83,0,5.34,0,5.37-5.09,5.38-8.81,0-17.62.05-26.43,0-3.69,0-3.91-.27-3.94-4-.06-7.64,0-15.29,0-22.94Z"/><path class="cls-2" d="M593.5,471.17c0-7.49,0-15,0-22.45,0-4.57.07-4.58,4.81-4.67,6.86-.12,6.41-.27,6.4,6q0,21,0,41.9a17.57,17.57,0,0,1-.13,4c-.18.78-1,1.93-1.68,2a39.56,39.56,0,0,1-7.46,0c-.68-.06-1.52-1.12-1.81-1.9a9.08,9.08,0,0,1-.12-3q0-11,0-21.95Z"/><path class="cls-2" d="M473.57,471.14c0-7.66,0-15.32,0-23,0-3.91.15-4.07,3.84-4.09,8.31-.05,7.28-.56,7.3,7.15,0,13.82,0,27.64,0,41.46a11.77,11.77,0,0,1-.14,3.47c-.24.76-1.18,1.33-1.88,1.9-.2.18-.64.08-1,.08-9.39.16-8.18-.05-8.21-7.51,0-6.5,0-13,0-19.48Z"/><path class="cls-1" d="M488.7,253.57C487.48,190,433.35,138.92,371.45,139.21c-65.5-.14-118,52.5-118.63,116.72-.63,63.73,51.73,119.54,120.16,118.49C437.27,373.43,490,320.11,488.7,253.57Zm-45,2.12c.45,22.54-7.64,39.95-22,54.53a66.65,66.65,0,0,1-38,19.52c-24.06,3.65-45.47-2.45-63.38-19.44a70,70,0,0,1-21-37.25c-4-19.38-1.14-37.81,9.15-54.78,11.25-18.53,27.86-30,49.13-33.52,29.4-4.88,53.91,4.45,72.15,28.28A65.89,65.89,0,0,1,443.68,255.69Z"/><path class="cls-2" d="M380.63,494.76c-2.36-6.22-4.69-12.44-7.1-18.63Q368,462,362.4,447.83c-.48-1.19-1.24-3-2.12-3.15a24.08,24.08,0,0,0-8.33-.26c-1.11.2-2.17,2.31-2.76,3.75q-8.49,21-16.8,42.14c-3.31,8.37-3,8.66,5.91,7.81a3.89,3.89,0,0,0,3.75-2.69c.76-2,1.8-3.95,2.42-6,.55-1.82,1.65-2.22,3.34-2.2,5.16,0,10.32,0,15.47-.05,1.93,0,3.11.55,3.66,2.51.49,1.75,1.38,3.39,1.94,5.12a4.29,4.29,0,0,0,4.85,3.35c.83-.06,1.67,0,2.5,0v0c.66,0,1.33,0,2,0C381.6,498,381.78,497.79,380.63,494.76Zm-21.3-17.66c-1.32,0-2.65,0-4,0v.16l-5.84-.58c.57-1.85,1-3.73,1.72-5.53,1.34-3.52,2.81-7,4.23-10.5,1.56,3.54,3.13,7.06,4.67,10.6.46,1.06.8,2.17,1.19,3.26C362.21,477,362.21,477,359.33,477.1Z"/><path class="cls-2" d="M681.74,493.75c-.16-.47-.34-.93-.52-1.4-5.71-14.52-11.52-29-17.07-43.58-2-5.36-2.19-4.66-7.21-4.74-.34,0-.67,0-1,0-2.48-.19-3.84.8-4.8,3.27-5.55,14.4-11.33,28.72-16.94,43.1-.86,2.22-2.63,4.28-1.77,7,2.6.27,5.2.57,7.81.79a3.08,3.08,0,0,0,3.37-2.34c.78-2.2,1.6-4.37,2.42-6.54a2.87,2.87,0,0,1,3-2.09c5.32.05,10.65,0,16,0a3.22,3.22,0,0,1,3.57,2.7c.54,1.91,1.47,3.7,2.11,5.59a3.58,3.58,0,0,0,4.13,2.74,19,19,0,0,1,2,0h0c.66,0,1.33,0,2,0C682.83,498,683.07,497.65,681.74,493.75ZM661.57,477c-1.66,0-3.32,0-5,0-1,0-2,0-3,0-2.58-.08-2.58-.09-1.76-2.34,1.61-4.36,3.21-8.72,4.83-13.07a7.16,7.16,0,0,1,.45-.87c.36.3.9.53,1,.91,1.71,4.5,3.39,9,5,13.54C663.6,476.44,662.77,477,661.57,477Z"/><path class="cls-2" d="M396.2,231.87a27.28,27.28,0,0,1-1.81,3.18Q384,248.46,373.57,261.83a11.7,11.7,0,0,1-1.33,1.48c-.84.74-1.72,1-2.57,0s-1.95-2.28-2.86-3.46q-9.4-12.27-18.77-24.57c-2.28-3-2.16-4.6.38-7.48,4.41-5,10.26-7.45,16.6-8.35,8.24-1.16,16.32-.19,23.61,4.23a30.78,30.78,0,0,1,5.69,4.77C395.2,229.29,395.57,230.66,396.2,231.87Z"/></g></g></svg>