<svg width="1268" height="175" xmlns="http://www.w3.org/2000/svg" viewBox="0 0 1267.88 175"><defs><style>.cls-1{fill:#ff7a1c;}</style></defs><g id="Capa_2" data-name="Capa 2"><g id="Capa_1-2" data-name="Capa 1"><path class="cls-1" d="M837.84,172.37a.82.82,0,0,1-.82-.82V3.49a.82.82,0,0,1,.82-.82H959.52c44.81,0,72.92,22.81,72.92,59.4,0,26.89-14.91,47.35-39.67,54.3a.84.84,0,0,0-.45,1.29l38.91,53.41a.82.82,0,0,1-.67,1.3H976.65A.84.84,0,0,1,976,172L939.62,121.8a.84.84,0,0,0-.67-.34h-56a.82.82,0,0,0-.82.82v49.27a.82.82,0,0,1-.82.82ZM882.92,46.42a.82.82,0,0,0-.82.82V76.89a.82.82,0,0,0,.82.82h80.85c16.17,0,20.94-6.1,20.94-15.64,0-10.08-6.1-15.65-21.74-15.65Z"/><path class="cls-1" d="M603.62,88.56C603.62,33.67,638.89,0,696.43,0H730.9C790,0,826.35,33.67,826.35,88.56c0,54.36-35.26,86.44-95.45,86.44H696.43C638.36,175,603.62,142.65,603.62,88.56Zm47.73-.26c0,26.78,16.18,41.62,46.14,41.62H730.9c28.1,0,47.72-11.66,47.72-41.62,0-29.7-19.62-43.22-47.72-43.22H697.49C668.32,45.08,651.35,60.72,651.35,88.3Z"/><path class="cls-1" d="M497.31,126.05a.83.83,0,0,0,.73.45h1.66a.81.81,0,0,0,.72-.45L564.13,3.11a.82.82,0,0,1,.73-.44h49.06a.82.82,0,0,1,.73,1.2L527.47,171.93a.82.82,0,0,1-.73.44H471a.82.82,0,0,1-.73-.44L383.09,3.87a.82.82,0,0,1,.73-1.2h49.06a.83.83,0,0,1,.73.44Z"/><path class="cls-1" d="M242.79,172.37a.82.82,0,0,1-.82-.82V3.49a.82.82,0,0,1,.82-.82h43.43a.82.82,0,0,1,.82.82V127.8a.82.82,0,0,0,.82.82h123a.82.82,0,0,1,.82.82v42.11a.82.82,0,0,1-.82.82Z"/><path class="cls-1" d="M142.11,2.38a2.71,2.71,0,0,1,1.69.8Q187,85.91,229.8,168.8a2.59,2.59,0,0,1-2.44,3.58H182.3a2.86,2.86,0,0,1-2.29-1.21c-4.11-7-6.68-15.31-12.95-20.69a27.51,27.51,0,0,0-16.25-6.56H77.37a.41.41,0,0,1-.35-.61l22.9-41.46a3.26,3.26,0,0,1,1.71-1.68c12.68-.21,25.41.17,38.08-.19a2.55,2.55,0,0,0,1.78-2.85c-8.14-16.14-16.51-32.22-25-48.2a2.19,2.19,0,0,0-3.41.43c-12.74,25.48-26,50.7-39.23,75.91l-12,22.65H62q-6.15,11.76-12.25,23.55a2.87,2.87,0,0,1-2,.91H2.45a2.6,2.6,0,0,1-2.42-3C28.55,113.92,57.42,58.59,86.17,3.23a2.38,2.38,0,0,1,1.63-.85Z"/><path class="cls-1" d="M1115.25,144.24a.4.4,0,0,1-.35-.6l22.9-41.46a3.26,3.26,0,0,1,1.71-1.68c12.68-.21,25.42.17,38.08-.19a2.56,2.56,0,0,0,1.78-2.86c-8.13-16.13-16.5-32.21-24.94-48.19a2.2,2.2,0,0,0-3.42.43c-20.51,41-42.33,81.36-63.37,122.1a2.85,2.85,0,0,1-2,.91h-45.28a2.61,2.61,0,0,1-2.42-3c28.52-55.47,57.39-110.8,86.14-166.16a2.38,2.38,0,0,1,1.63-.85H1180a2.71,2.71,0,0,1,1.68.8q43.15,82.73,86,165.62a2.59,2.59,0,0,1-2.44,3.58h-45.06a2.86,2.86,0,0,1-2.29-1.21c-4.1-7-6.68-15.31-13-20.69a27.4,27.4,0,0,0-16.24-6.56h-73.45Z"/></g></g></svg>